<svg width="512" height="512" viewBox="0 0 512 512" xmlns="http://www.w3.org/2000/svg">
  <defs>
    <linearGradient id="bg" x1="0" y1="0" x2="1" y2="1">
      <stop offset="0%" stop-color="#2563EB"></stop>
      <stop offset="100%" stop-color="#14B8A6"></stop>
    </linearGradient>
  </defs>

  <!-- Background -->
  <rect width="512" height="512" rx="110" fill="url(#bg)"></rect>

  <!-- Medical cross -->
  <rect x="216" y="105" width="80" height="210" rx="25" fill="white"></rect>
  <rect x="151" y="170" width="210" height="80" rx="25" fill="white"></rect>

  <!-- Shopping bag -->
  <path d="M125 300
       C125 285 137 273 152 273
       H360
       C375 273 387 285 387 300
       L373 405
       C371 421 358 433 342 433
       H170
       C154 433 141 421 139 405
       Z" fill="white" opacity="0.96"></path>

  <!-- Bag handle -->
  <path d="M195 300
       V267
       C195 226 317 226 317 267
       V300" fill="none" stroke="#2563EB" stroke-width="22" stroke-linecap="round"></path>

  <!-- Small pharmacy symbol -->
  <circle cx="256" cy="355" r="43" fill="#14B8A6"></circle>
  <rect x="246" y="326" width="20" height="58" rx="7" fill="white"></rect>
  <rect x="227" y="345" width="58" height="20" rx="7" fill="white"></rect>
</svg>